<svg width="15.400391" height="15.400391" viewBox="0 0 15.4004 15.4004" fill="none" xmlns="http://www.w3.org/2000/svg" xmlns:xlink="http://www.w3.org/1999/xlink">
	<desc>
			Created with Pixso.
	</desc>
	<defs/>
	<path id="Vector" d="M0.7 10.32C0.7 9.84 1.09 9.45 1.57 9.45L5.07 9.45C5.55 9.45 5.95 9.84 5.95 10.32L5.95 13.82C5.95 14.3 5.55 14.7 5.07 14.7L1.57 14.7C1.09 14.7 0.7 14.3 0.7 13.82L0.7 10.32Z" stroke="#FE5F00" stroke-opacity="1.000000" stroke-width="1.400000" stroke-linejoin="round"/>
	<path id="Vector" d="M0.7 1.57C0.7 1.09 1.09 0.7 1.57 0.7L5.07 0.7C5.55 0.7 5.95 1.09 5.95 1.57L5.95 5.07C5.95 5.55 5.55 5.95 5.07 5.95L1.57 5.95C1.09 5.95 0.7 5.55 0.7 5.07L0.7 1.57Z" stroke="#FE5F00" stroke-opacity="1.000000" stroke-width="1.400000" stroke-linejoin="round"/>
	<path id="Vector" d="M9.45 10.32C9.45 9.84 9.84 9.45 10.32 9.45L13.82 9.45C14.3 9.45 14.7 9.84 14.7 10.32L14.7 13.82C14.7 14.3 14.3 14.7 13.82 14.7L10.32 14.7C9.84 14.7 9.45 14.3 9.45 13.82L9.45 10.32Z" stroke="#FE5F00" stroke-opacity="1.000000" stroke-width="1.400000" stroke-linejoin="round"/>
	<path id="Vector" d="M12.07 0.7L12.07 5.95L12.07 0.7ZM9.45 3.32L14.7 3.32" stroke="#FE5F00" stroke-opacity="1.000000" stroke-width="1.400000" stroke-linejoin="round" stroke-linecap="round"/>
</svg>
