<svg width="16.166504" height="16.166504" viewBox="0 0 16.1665 16.1665" fill="none" xmlns="http://www.w3.org/2000/svg" xmlns:xlink="http://www.w3.org/1999/xlink">
	<desc>
			Created with Pixso.
	</desc>
	<defs/>
	<rect rx="-0.500000" width="15.000000" height="15.000000" transform="translate(0.583496 0.583496)" fill="#FFFFFF" fill-opacity="0"/>
	<path d="M5.41 15.41C4.68 15.41 4.08 14.81 4.08 14.08C4.08 13.34 4.68 12.75 5.41 12.75C6.15 12.75 6.75 13.34 6.75 14.08C6.75 14.81 6.15 15.41 5.41 15.41Z" stroke="#FE5F00" stroke-opacity="1.000000" stroke-width="1.500000" stroke-linejoin="round"/>
	<path d="M13.41 15.41C12.68 15.41 12.08 14.81 12.08 14.08C12.08 13.34 12.68 12.75 13.41 12.75C14.15 12.75 14.75 13.34 14.75 14.08C14.75 14.81 14.15 15.41 13.41 15.41Z" stroke="#FE5F00" stroke-opacity="1.000000" stroke-width="1.500000" stroke-linejoin="round"/>
	<path d="M3.86 4.08L15.41 4.08L14.29 9.67C14.23 9.98 14.06 10.25 13.82 10.45C13.58 10.65 13.27 10.75 12.96 10.75L5.91 10.75C5.59 10.75 5.27 10.63 5.03 10.42C4.78 10.2 4.62 9.91 4.58 9.58L3.56 1.91C3.52 1.58 3.37 1.29 3.12 1.08C2.88 0.86 2.57 0.75 2.25 0.75L0.75 0.75" stroke="#FE5F00" stroke-opacity="1.000000" stroke-width="1.500000" stroke-linejoin="round" stroke-linecap="round"/>
</svg>
