<svg width="20.000000" height="20.000000" viewBox="0 0 20 20" fill="none" xmlns="http://www.w3.org/2000/svg" xmlns:xlink="http://www.w3.org/1999/xlink">
	<desc>
			Created with Pixso.
	</desc>
	<defs/>
	<g opacity="0.200000">
		<path id="Vector" d="M11.63 9.94L19.73 1.84C19.91 1.63 20 1.35 19.99 1.07C19.98 0.79 19.87 0.53 19.67 0.33C19.47 0.13 19.21 0.02 18.93 0.01C18.65 0 18.37 0.09 18.16 0.27L10.06 8.37L1.96 0.26C1.75 0.08 1.47 -0.01 1.2 0C0.92 0.01 0.65 0.12 0.45 0.32C0.25 0.52 0.14 0.78 0.13 1.06C0.12 1.34 0.21 1.62 0.39 1.83L8.49 9.94L0.38 18.04C0.27 18.14 0.17 18.26 0.11 18.4C0.04 18.54 0 18.69 0 18.84C-0.01 18.99 0.02 19.15 0.07 19.29C0.13 19.43 0.21 19.56 0.32 19.67C0.43 19.78 0.56 19.86 0.7 19.92C0.84 19.97 1 20 1.15 19.99C1.3 19.99 1.45 19.95 1.59 19.88C1.73 19.82 1.85 19.72 1.95 19.61L10.06 11.51L18.16 19.61C18.37 19.79 18.65 19.88 18.93 19.87C19.21 19.86 19.47 19.75 19.67 19.55C19.87 19.35 19.98 19.09 19.99 18.81C20 18.53 19.91 18.25 19.73 18.04L11.63 9.94Z" fill="#000000" fill-opacity="1.000000" fill-rule="nonzero"/>
	</g>
</svg>
