<svg width="16.000000" height="16.000000" viewBox="0 0 16 16" fill="none" xmlns="http://www.w3.org/2000/svg" xmlns:xlink="http://www.w3.org/1999/xlink">
	<desc>
			Created with Pixso.
	</desc>
	<defs/>
	<path id="Vector" d="M6.48 0C7.69 0 8.88 0.33 9.9 0.97C10.93 1.61 11.76 2.52 12.3 3.6C12.83 4.69 13.06 5.9 12.94 7.1C12.82 8.31 12.37 9.45 11.64 10.42L15.74 14.52C15.9 14.68 15.99 14.88 16 15.1C16 15.32 15.92 15.54 15.78 15.7C15.63 15.87 15.43 15.97 15.21 15.99C14.99 16.01 14.78 15.95 14.6 15.81L14.52 15.74L10.42 11.64C9.6 12.27 8.64 12.69 7.63 12.87C6.61 13.05 5.57 12.99 4.58 12.68C3.6 12.38 2.7 11.85 1.96 11.13C1.22 10.42 0.67 9.53 0.34 8.56C0.01 7.58 -0.09 6.54 0.07 5.52C0.22 4.5 0.61 3.54 1.21 2.7C1.81 1.86 2.6 1.18 3.52 0.71C4.44 0.24 5.45 0 6.48 0ZM6.48 1.72C5.22 1.72 4.01 2.23 3.12 3.12C2.23 4.01 1.72 5.22 1.72 6.48C1.72 7.74 2.23 8.95 3.12 9.85C4.01 10.74 5.22 11.24 6.48 11.24C7.74 11.24 8.95 10.74 9.85 9.85C10.74 8.95 11.24 7.74 11.24 6.48C11.24 5.22 10.74 4.01 9.85 3.12C8.95 2.23 7.74 1.72 6.48 1.72Z" fill="#ADADAD" fill-opacity="1.000000" fill-rule="nonzero"/>
</svg>
