<svg width="13.534180" height="13.999512" viewBox="0 0 13.5342 13.9995" fill="none" xmlns="http://www.w3.org/2000/svg" xmlns:xlink="http://www.w3.org/1999/xlink">
	<desc>
			Created with Pixso.
	</desc>
	<defs/>
	<path id="Vector" d="M12.78 13.24L12.78 11.86C12.78 11.12 12.46 10.41 11.9 9.89C11.33 9.37 10.57 9.08 9.77 9.08L3.75 9.08C2.96 9.08 2.19 9.37 1.63 9.89C1.06 10.41 0.75 11.12 0.75 11.86L0.75 13.24" stroke="#FE5F00" stroke-opacity="1.000000" stroke-width="1.500000" stroke-linejoin="round" stroke-linecap="round"/>
	<path id="Vector" d="M6.76 6.3C5.1 6.3 3.75 5.06 3.75 3.52C3.75 1.99 5.1 0.75 6.76 0.75C8.42 0.75 9.77 1.99 9.77 3.52C9.77 5.06 8.42 6.3 6.76 6.3Z" stroke="#FE5F00" stroke-opacity="1.000000" stroke-width="1.500000" stroke-linejoin="round"/>
</svg>
